<?xml version="1.0" encoding="UTF-8" standalone="no"?>
<svg xmlns:dc="http://purl.org/dc/elements/1.1/" xmlns:cc="http://creativecommons.org/ns#" xmlns:rdf="http://www.w3.org/1999/02/22-rdf-syntax-ns#" xmlns:svg="http://www.w3.org/2000/svg" xmlns="http://www.w3.org/2000/svg" xmlns:sodipodi="http://sodipodi.sourceforge.net/DTD/sodipodi-0.dtd" xmlns:inkscape="http://www.inkscape.org/namespaces/inkscape" width="24px" height="24px" viewBox="0 0 24 24" version="1.1" id="svg908" sodipodi:docname="mail.svg" inkscape:version="0.92.3 (2405546, 2018-03-11)">
  <metadata id="metadata914">
    <rdf:RDF>
      <cc:Work rdf:about="">
        <dc:format>image/svg+xml</dc:format>
        <dc:type rdf:resource="http://purl.org/dc/dcmitype/StillImage"/>
      </cc:Work>
    </rdf:RDF>
  </metadata>
  <defs id="defs912"/>
  <sodipodi:namedview pagecolor="#ffffff" bordercolor="#666666" borderopacity="1" objecttolerance="10" gridtolerance="10" guidetolerance="10" inkscape:pageopacity="0" inkscape:pageshadow="2" inkscape:window-width="768" inkscape:window-height="480" id="namedview910" showgrid="false" inkscape:zoom="9.8333333" inkscape:cx="12" inkscape:cy="12" inkscape:window-x="345" inkscape:window-y="434" inkscape:window-maximized="0" inkscape:current-layer="svg908"/>
  <title id="title900">Icon For Mail</title>
  <g stroke="none" stroke-width="1" fill="none" fill-rule="evenodd" id="g906" style="fill:#f8f9fa;fill-opacity:1">
    <rect opacity="0" x="0" y="0" width="24" height="24" id="rect902" style="fill:#f8f9fa;fill-opacity:1"/>
    <path d="M5,6 L19,6 C20.1045695,6 21,6.8954305 21,8 L21,17 C21,18.1045695 20.1045695,19 19,19 L5,19 C3.8954305,19 3,18.1045695 3,17 L3,8 C3,6.8954305 3.8954305,6 5,6 Z M18.1444251,7.83964668 L12,11.1481833 L5.85557487,7.83964668 C5.4908718,7.6432681 5.03602525,7.77972206 4.83964668,8.14442513 C4.6432681,8.5091282 4.77972206,8.96397475 5.14442513,9.16035332 L11.6444251,12.6603533 C11.8664074,12.7798822 12.1335926,12.7798822 12.3555749,12.6603533 L18.8555749,9.16035332 C19.2202779,8.96397475 19.3567319,8.5091282 19.1603533,8.14442513 C18.9639747,7.77972206 18.5091282,7.6432681 18.1444251,7.83964668 Z" fill="#000000" id="path904" style="fill:#f8f9fa;fill-opacity:1"/>
  </g>
</svg>